<mxfile host="app.diagrams.net" modified="2024-06-20T07:28:32.177Z" agent="Mozilla/5.0 (Windows NT 10.0; Win64; x64) AppleWebKit/537.36 (KHTML, like Gecko) Chrome/126.0.0.0 Safari/537.36" etag="uT2Z4HcH4EhhhCdW3pQd" version="24.5.5" type="device">
  <diagram name="Página-1" id="x17MMTbr8rduTtiIxTdY">
    <mxGraphModel dx="794" dy="1893" grid="1" gridSize="10" guides="1" tooltips="1" connect="1" arrows="1" fold="1" page="1" pageScale="1" pageWidth="827" pageHeight="1169" math="0" shadow="0">
      <root>
        <mxCell id="0" />
        <mxCell id="1" parent="0" />
        <mxCell id="noiuWYz8lImZyexX832K-1" value="Rol" style="rounded=0;whiteSpace=wrap;html=1;" parent="1" vertex="1">
          <mxGeometry x="80" y="-460" width="120" height="60" as="geometry" />
        </mxCell>
        <mxCell id="noiuWYz8lImZyexX832K-2" value="Usuarios" style="rounded=0;whiteSpace=wrap;html=1;" parent="1" vertex="1">
          <mxGeometry x="320" y="-460" width="120" height="60" as="geometry" />
        </mxCell>
        <mxCell id="noiuWYz8lImZyexX832K-3" value="&lt;div&gt;Categorías &lt;br&gt;&lt;/div&gt;&lt;div&gt;Productos&lt;br&gt;&lt;/div&gt;" style="rounded=0;whiteSpace=wrap;html=1;" parent="1" vertex="1">
          <mxGeometry x="80" y="-360" width="120" height="60" as="geometry" />
        </mxCell>
        <mxCell id="noiuWYz8lImZyexX832K-4" value="Productos" style="rounded=0;whiteSpace=wrap;html=1;" parent="1" vertex="1">
          <mxGeometry x="320" y="-360" width="120" height="60" as="geometry" />
        </mxCell>
        <mxCell id="noiuWYz8lImZyexX832K-5" value="&lt;div&gt;Categorías &lt;br&gt;&lt;/div&gt;&lt;div&gt;Artículos&lt;br&gt;&lt;/div&gt;" style="rounded=0;whiteSpace=wrap;html=1;" parent="1" vertex="1">
          <mxGeometry x="80" y="-250" width="120" height="60" as="geometry" />
        </mxCell>
        <mxCell id="noiuWYz8lImZyexX832K-6" value="Playas" style="rounded=0;whiteSpace=wrap;html=1;" parent="1" vertex="1">
          <mxGeometry x="460" y="-230" width="120" height="60" as="geometry" />
        </mxCell>
        <mxCell id="noiuWYz8lImZyexX832K-7" value="Servicios" style="rounded=0;whiteSpace=wrap;html=1;" parent="1" vertex="1">
          <mxGeometry x="620" y="-120" width="120" height="60" as="geometry" />
        </mxCell>
        <mxCell id="noiuWYz8lImZyexX832K-10" value="" style="edgeStyle=segmentEdgeStyle;endArrow=classic;html=1;curved=0;rounded=0;endSize=8;startSize=8;entryX=1;entryY=0.5;entryDx=0;entryDy=0;exitX=0;exitY=0.5;exitDx=0;exitDy=0;" parent="1" source="noiuWYz8lImZyexX832K-2" target="noiuWYz8lImZyexX832K-1" edge="1">
          <mxGeometry width="50" height="50" relative="1" as="geometry">
            <mxPoint x="310" y="-490" as="sourcePoint" />
            <mxPoint x="240" y="-545" as="targetPoint" />
          </mxGeometry>
        </mxCell>
        <mxCell id="noiuWYz8lImZyexX832K-11" value="" style="edgeStyle=segmentEdgeStyle;endArrow=classic;html=1;curved=0;rounded=0;endSize=8;startSize=8;entryX=1;entryY=0.5;entryDx=0;entryDy=0;" parent="1" target="noiuWYz8lImZyexX832K-3" edge="1">
          <mxGeometry width="50" height="50" relative="1" as="geometry">
            <mxPoint x="320" y="-350.5" as="sourcePoint" />
            <mxPoint x="210" y="-350.5" as="targetPoint" />
            <Array as="points">
              <mxPoint x="320" y="-330" />
            </Array>
          </mxGeometry>
        </mxCell>
        <mxCell id="noiuWYz8lImZyexX832K-13" value="" style="edgeStyle=segmentEdgeStyle;endArrow=classic;html=1;curved=0;rounded=0;endSize=8;startSize=8;" parent="1" edge="1">
          <mxGeometry width="50" height="50" relative="1" as="geometry">
            <mxPoint x="620" y="-80" as="sourcePoint" />
            <mxPoint x="513" y="-170" as="targetPoint" />
            <Array as="points">
              <mxPoint x="513" y="-80" />
            </Array>
          </mxGeometry>
        </mxCell>
        <mxCell id="noiuWYz8lImZyexX832K-15" value="" style="edgeStyle=segmentEdgeStyle;endArrow=classic;html=1;curved=0;rounded=0;endSize=8;startSize=8;exitX=0.992;exitY=0.367;exitDx=0;exitDy=0;exitPerimeter=0;" parent="1" edge="1" source="noiuWYz8lImZyexX832K-7">
          <mxGeometry width="50" height="50" relative="1" as="geometry">
            <mxPoint x="750" y="-100" as="sourcePoint" />
            <mxPoint x="790" y="-170" as="targetPoint" />
            <Array as="points">
              <mxPoint x="790" y="-98" />
            </Array>
          </mxGeometry>
        </mxCell>
        <mxCell id="noiuWYz8lImZyexX832K-16" value="&lt;div&gt;Playas &lt;br&gt;&lt;/div&gt;&lt;div&gt;Servicios&lt;br&gt;&lt;/div&gt;" style="rounded=0;whiteSpace=wrap;html=1;" parent="1" vertex="1">
          <mxGeometry x="700" y="-230" width="120" height="60" as="geometry" />
        </mxCell>
        <mxCell id="noiuWYz8lImZyexX832K-18" value="" style="edgeStyle=elbowEdgeStyle;elbow=vertical;endArrow=classic;html=1;curved=0;rounded=0;endSize=8;startSize=8;fontStyle=1" parent="1" edge="1">
          <mxGeometry width="50" height="50" relative="1" as="geometry">
            <mxPoint x="580" y="-201" as="sourcePoint" />
            <mxPoint x="700" y="-201" as="targetPoint" />
          </mxGeometry>
        </mxCell>
        <mxCell id="w-tos0U7WxVfXuxUIXLH-1" value="&lt;div&gt;Artículos&lt;/div&gt;&lt;div&gt;&lt;br&gt;&lt;/div&gt;" style="rounded=0;whiteSpace=wrap;html=1;" vertex="1" parent="1">
          <mxGeometry x="320" y="-250" width="120" height="60" as="geometry" />
        </mxCell>
        <mxCell id="w-tos0U7WxVfXuxUIXLH-2" value="" style="edgeStyle=segmentEdgeStyle;endArrow=classic;html=1;curved=0;rounded=0;endSize=8;startSize=8;entryX=1;entryY=0.5;entryDx=0;entryDy=0;" edge="1" parent="1">
          <mxGeometry width="50" height="50" relative="1" as="geometry">
            <mxPoint x="320" y="-240.25" as="sourcePoint" />
            <mxPoint x="200" y="-219.75" as="targetPoint" />
            <Array as="points">
              <mxPoint x="320" y="-219.75" />
            </Array>
          </mxGeometry>
        </mxCell>
        <mxCell id="w-tos0U7WxVfXuxUIXLH-4" value="Carrito" style="rounded=0;whiteSpace=wrap;html=1;" vertex="1" parent="1">
          <mxGeometry x="490" y="-410" width="120" height="60" as="geometry" />
        </mxCell>
        <mxCell id="w-tos0U7WxVfXuxUIXLH-6" value="" style="edgeStyle=elbowEdgeStyle;elbow=vertical;endArrow=classic;html=1;curved=0;rounded=0;endSize=8;startSize=8;entryX=0.386;entryY=0.036;entryDx=0;entryDy=0;entryPerimeter=0;" edge="1" parent="1" target="w-tos0U7WxVfXuxUIXLH-4">
          <mxGeometry width="50" height="50" relative="1" as="geometry">
            <mxPoint x="440" y="-439.83000000000004" as="sourcePoint" />
            <mxPoint x="550" y="-470" as="targetPoint" />
          </mxGeometry>
        </mxCell>
        <mxCell id="w-tos0U7WxVfXuxUIXLH-8" value="Estados" style="rounded=0;whiteSpace=wrap;html=1;" vertex="1" parent="1">
          <mxGeometry x="520" y="-560" width="120" height="60" as="geometry" />
        </mxCell>
        <mxCell id="w-tos0U7WxVfXuxUIXLH-9" value="Pedidos" style="rounded=0;whiteSpace=wrap;html=1;" vertex="1" parent="1">
          <mxGeometry x="320" y="-560" width="120" height="60" as="geometry" />
        </mxCell>
        <mxCell id="w-tos0U7WxVfXuxUIXLH-10" value="" style="edgeStyle=segmentEdgeStyle;endArrow=classic;html=1;curved=0;rounded=0;endSize=8;startSize=8;" edge="1" parent="1">
          <mxGeometry width="50" height="50" relative="1" as="geometry">
            <mxPoint x="550" y="-350" as="sourcePoint" />
            <mxPoint x="440" y="-310" as="targetPoint" />
            <Array as="points">
              <mxPoint x="550" y="-310" />
            </Array>
          </mxGeometry>
        </mxCell>
        <mxCell id="w-tos0U7WxVfXuxUIXLH-12" value="" style="edgeStyle=elbowEdgeStyle;elbow=vertical;endArrow=classic;html=1;curved=0;rounded=0;endSize=8;startSize=8;fontStyle=1;exitX=0.5;exitY=0;exitDx=0;exitDy=0;" edge="1" parent="1" source="noiuWYz8lImZyexX832K-2">
          <mxGeometry width="50" height="50" relative="1" as="geometry">
            <mxPoint x="380" y="-499.99999999999994" as="sourcePoint" />
            <mxPoint x="380" y="-500" as="targetPoint" />
          </mxGeometry>
        </mxCell>
        <mxCell id="w-tos0U7WxVfXuxUIXLH-13" value="" style="edgeStyle=elbowEdgeStyle;elbow=vertical;endArrow=classic;html=1;curved=0;rounded=0;endSize=8;startSize=8;fontStyle=1;entryX=0;entryY=0.5;entryDx=0;entryDy=0;" edge="1" parent="1" target="w-tos0U7WxVfXuxUIXLH-8">
          <mxGeometry width="50" height="50" relative="1" as="geometry">
            <mxPoint x="440" y="-530.25" as="sourcePoint" />
            <mxPoint x="500" y="-530.42" as="targetPoint" />
          </mxGeometry>
        </mxCell>
      </root>
    </mxGraphModel>
  </diagram>
</mxfile>
